<svg version="1.1" xmlns="http://www.w3.org/2000/svg" xmlns:xlink="http://www.w3.org/1999/xlink" x="0px" y="0px"
	 viewBox="-545 358.9 100 125" style="enable-background:new -545 358.9 100 125;" xml:space="preserve">
<path d="M-527.7,453.5c0.5,0.4,1.1,0.6,1.8,0.6c0.4,0,0.9-0.1,1.3-0.3l13.3-6.3c0.4-0.2,0.8-0.5,1.1-0.9l30.2-41.1
	c0,0,0,0,0,0c0,0,0,0,0,0l7.7-10.5c1.6-2.2,1.2-5.4-1.1-7l-8.1-5.9c-0.9-0.6-1.9-1-3-1c-1.6,0-3.1,0.8-4,2l-37.9,51.5
	c-0.3,0.4-0.5,0.9-0.6,1.4l-2.1,14.6C-529,451.7-528.6,452.8-527.7,453.5z M-484.1,387.5l6.4,4.7l-5.3,7.2l-6.4-4.7L-484.1,387.5z
	 M-521,437.6l28-38l6.4,4.7l-28,38l-7.6,3.6L-521,437.6z M-463.5,455.7h-63c-1.7,0-3,1.3-3,3c0,1.7,1.3,3,3,3h63c1.7,0,3-1.3,3-3
	C-460.5,457.1-461.8,455.7-463.5,455.7z"/>
</svg>
