<svg id="Layer_1" data-name="Layer 1" xmlns="http://www.w3.org/2000/svg" viewBox="0 0 100 125"><defs><style>.cls-1{fill:#333;}</style></defs><title>Artboard 1</title><path class="cls-1" d="M74.053,57.673a1.615,1.615,0,0,0-.614-.121H68.4l-4.4-9-.037-.01A51.457,51.457,0,0,0,51,46.463V46.45H50v.01a52.348,52.348,0,0,0-13.963,2.084L36,48.55l-4.4,9H26.561a1.615,1.615,0,0,0-.614.121A1.508,1.508,0,0,0,25,59.045v.6a2.022,2.022,0,0,0,1.463,1.891L29,62.13V76.95a1.6,1.6,0,0,0,1.6,1.6h7.9a1.5,1.5,0,0,0,1.5-1.5v-2.5H60v2.4a1.6,1.6,0,0,0,1.6,1.6h7.8a1.6,1.6,0,0,0,1.6-1.6h0V62.13l2.537-.6A2.021,2.021,0,0,0,75,59.642v-.6A1.507,1.507,0,0,0,74.053,57.673ZM37.5,50.55A47.83,47.83,0,0,1,50,48.75a47.83,47.83,0,0,1,12.5,1.8l4.5,9H33Zm1.2,19h-5a1.7,1.7,0,0,1-1.7-1.7v-1.8a1.263,1.263,0,0,1,1.177-1.344,1.287,1.287,0,0,1,.423.044l5.2,1.2a2.132,2.132,0,0,1,1.6,2A1.666,1.666,0,0,1,38.7,69.55Zm17.3,2H45v-2H56Zm12-3.7a1.7,1.7,0,0,1-1.7,1.7h-5a1.666,1.666,0,0,1-1.7-1.6,2.132,2.132,0,0,1,1.6-2l5.2-1.2a1.264,1.264,0,0,1,1.6,1.3Z"/></svg>